<svg viewBox="0 10 380 360" xmlns="http://www.w3.org/2000/svg" display="block"><path d="M0 191.571v191.571h400V0H0v191.571m203.831-177.35c4.079 1.99 17.625 14.806 17.625 16.674 0 .432.492 1.329 1.093 1.995 1.591 1.759 9.253 16.774 10.394 20.367.535 1.686 1.237 3.41 1.559 3.831 1.567 2.051 6.031 23.337 6.267 29.885.203 5.636-3.398 27.815-6.612 40.714-3.584 14.386-6.208 24.295-7.888 29.784-.645 2.108-1.622 5.728-2.172 8.046-3.532 14.896-4.441 16.099-12.162 16.077-7.034-.02-15.68-1.284-17.656-2.581-2.025-1.33-10.341-17.996-19.448-38.975-2.362-5.442-7.781-19.402-7.781-20.045 0-.333-.48-1.691-1.067-3.019-1.404-3.177-3.395-9.145-4.641-13.909-.551-2.107-1.366-4.693-1.812-5.747-3.354-7.928-2.943-36.058.685-46.938.809-2.425 1.471-4.897 1.471-5.493 0-.597.478-2.061 1.064-3.254a479.104 479.104 0 0 0 3.197-6.767c4.941-10.648 13.97-19.523 23.325-22.926 2.605-.948 10.466.284 14.559 2.281M84.072 76.671c3.703.867 7.767 1.932 9.031 2.367 1.265.435 3.637 1.117 5.272 1.516 1.635.398 3.695 1.23 4.577 1.848.882.617 2.13 1.124 2.774 1.126 1.161.003 7.822 3.145 9.495 4.479.479.382 1.707.951 2.728 1.265 1.021.314 2.228.882 2.682 1.263.454.381 2.547 1.805 4.652 3.163 2.105 1.359 4.389 2.988 5.076 3.62 8.553 7.87 13.797 13.983 20.873 24.33 2.378 3.477 6.147 8.994 8.377 12.26 4.332 6.348 7.937 12.132 14.287 22.923 1.447 2.459 2.839 4.644 3.094 4.855 1.387 1.148 9.983 17.075 9.983 18.497 0 1.057-1.785 3.414-4.804 6.343-11.434 11.093-12.4 11.675-17.316 10.413-12.69-3.256-53.565-17.678-56.424-19.908-.421-.329-1.628-.856-2.682-1.171-3.237-.967-20.877-9.631-24.368-11.968-1.812-1.214-3.647-2.206-4.078-2.206-1.762 0-18.924-18.303-22.992-24.521-26.315-40.223-11.581-70.169 29.763-60.494M314.891 91.36c15.523 3.714 23.223 19.903 18.506 38.908-6.566 26.456-15.202 37.503-40.935 52.36-11.156 6.441-47.284 24.269-49.181 24.269-4.133 0-18.413-14.166-17.736-17.595 1.131-5.735 4.601-18.091 5.925-21.103.371-.843 1.69-4.636 2.932-8.429s2.8-7.931 3.463-9.195c.663-1.265 1.208-2.763 1.211-3.33.002-.567.498-1.947 1.101-3.065.604-1.119 1.856-3.759 2.784-5.866 6.4-14.534 9.866-20.334 15.617-26.135 9.828-9.914 23.765-18.018 34.909-20.298a541.6 541.6 0 0 0 6.896-1.456c4.572-1.012 7.034-.853 14.508.935m31.513 89.451c31.438 5.893 44.982 26.336 29.975 45.243-4.53 5.705-12.246 12.274-18.23 15.517-.584.316-1.664.922-2.402 1.346-2.91 1.675-11.292 5.359-12.193 5.359-.434 0-1.791.498-3.015 1.107-5.648 2.809-25.22 2.854-39.006.089-2.951-.592-6.916-1.281-8.813-1.533-3.358-.445-7.798-1.378-18.774-3.945-2.95-.69-7.26-1.557-9.578-1.927-11.235-1.792-12.629-3.433-13.431-15.809l-.546-8.423 3.452-2.596c6.071-4.564 7.16-5.261 22.475-14.39 8.812-5.253 21.341-11.771 28.663-14.912 2.739-1.175 5.702-2.486 6.584-2.914 7.22-3.501 22.717-4.485 34.839-2.212M106.13 193.829c2.529.338 8.046 1.019 12.261 1.512 4.214.494 10.421 1.389 13.793 1.991 3.372.601 8.027 1.298 10.345 1.549 2.318.251 6.801.943 9.961 1.539 3.161.595 7.459 1.349 9.55 1.674 6.305.982 7.309 3.232 7.309 16.392v10.597l-2.108 1.341c-1.159.738-2.279 1.523-2.49 1.744-.817.86-6.625 4.614-7.137 4.614-.298 0-2.193 1.12-4.212 2.49-7.672 5.206-28.375 17.046-39.609 22.652-23.63 11.791-30.595 14.172-45.063 15.405-29.012 2.474-54.622-6.268-63.689-21.741-3.835-6.543-2.148-20.276 3.141-25.566.557-.557 1.013-1.256 1.013-1.553 0-5.114 25.634-23.108 43.295-30.393 13.11-5.407 33.11-6.99 53.64-4.247m157.468 52.3c1.052.396 4.155 1.188 6.897 1.76 12.48 2.607 29.519 9.164 35.166 13.534 2.235 1.729 8.515 9.718 8.515 10.831 0 .443.448 1.35.994 2.015 11.757 14.31 9.806 55.95-3.267 69.748-16.146 17.04-49.339 11.387-58.231-9.917-.439-1.054-1.108-2.458-1.486-3.12-1.04-1.824-4.301-10.398-6.244-16.421-.951-2.95-2.164-6.57-2.695-8.046-.531-1.475-1.716-5.268-2.633-8.429a7456.276 7456.276 0 0 0-6.124-20.962c-2.798-9.547-2.161-12.523 4.558-21.268 1.493-1.944 3.232-4.344 3.864-5.334 3.919-6.14 11.664-7.784 20.686-4.391m-74.216 19.847c4.365.464 12.526 1.24 18.136 1.725l10.201.881 1.814 3.449c2.839 5.398 7.67 16.021 9.583 21.072.957 2.529 2.031 5.288 2.387 6.131 5.216 12.358 7.221 44.528 3.099 49.7-.384.481-.962 1.736-1.285 2.79-3.891 12.693-31.748 18.212-45.14 8.942-10.959-7.585-23.387-30.835-23.417-43.808-.019-8.626 5.282-31.977 9.569-42.145.533-1.265 1.38-3.59 1.883-5.167 1.485-4.657 1.891-4.767 13.17-3.57" fill="none"/><path d="M189.272 11.94c-9.355 3.403-18.384 12.278-23.325 22.926a479.104 479.104 0 0 1-3.197 6.767c-.586 1.193-1.064 2.657-1.064 3.254 0 .596-.662 3.068-1.471 5.493-3.628 10.88-4.039 39.01-.685 46.938.446 1.054 1.261 3.64 1.812 5.747 1.246 4.764 3.237 10.732 4.641 13.909.587 1.328 1.067 2.686 1.067 3.019 0 1.671 8.23 21.472 15.1 36.329 10.524 22.759 10.96 23.32 19.025 24.485 17.549 2.536 18.911 1.628 22.922-15.29.55-2.318 1.527-5.938 2.172-8.046 1.68-5.489 4.304-15.398 7.888-29.784 3.214-12.899 6.815-35.078 6.612-40.714-.236-6.548-4.7-27.834-6.267-29.885-.322-.421-1.024-2.145-1.559-3.831-1.141-3.593-8.803-18.608-10.394-20.367-.601-.666-1.093-1.563-1.093-1.995 0-1.868-13.546-14.684-17.625-16.674-4.093-1.997-11.954-3.229-14.559-2.281M56.705 77.001c-24.808 8.751-19.595 45.146 10.839 75.681 4.936 4.952 9.327 9.004 9.757 9.004.431 0 2.266.992 4.078 2.206 3.491 2.337 21.131 11.001 24.368 11.968 1.054.315 2.261.842 2.682 1.171 2.859 2.23 43.734 16.652 56.424 19.908 4.916 1.262 5.882.68 17.316-10.413 3.019-2.929 4.804-5.286 4.804-6.343 0-1.422-8.596-17.349-9.983-18.497-.255-.211-1.647-2.396-3.094-4.855-6.35-10.791-9.955-16.575-14.287-22.923-2.23-3.266-5.999-8.783-8.377-12.26-7.076-10.347-12.32-16.46-20.873-24.33-.687-.632-2.971-2.261-5.076-3.62-2.105-1.358-4.198-2.782-4.652-3.163-.454-.381-1.661-.949-2.682-1.263-1.021-.314-2.249-.883-2.728-1.265-1.673-1.334-8.334-4.476-9.495-4.479-.644-.002-1.892-.509-2.774-1.126-.882-.618-2.942-1.45-4.577-1.848-1.635-.399-4.007-1.081-5.272-1.516-12.411-4.27-27.65-5.122-36.398-2.037m243.678 13.424a541.6 541.6 0 0 1-6.896 1.456c-11.144 2.28-25.081 10.384-34.909 20.298-5.751 5.801-9.217 11.601-15.617 26.135-.928 2.107-2.18 4.747-2.784 5.866-.603 1.118-1.099 2.498-1.101 3.065-.003.567-.548 2.065-1.211 3.33-.663 1.264-2.221 5.402-3.463 9.195s-2.561 7.586-2.932 8.429c-1.324 3.012-4.794 15.368-5.925 21.103-.677 3.429 13.603 17.595 17.736 17.595 1.897 0 38.025-17.828 49.181-24.269 20.45-11.807 26.866-18.009 34.06-32.922 3.442-7.137 4.717-10.741 6.875-19.438 1.364-5.496.834-19.507-.92-24.301-4.091-11.183-19.053-18.429-32.094-15.542m18.845 90.445c-3.332.757-6.781 1.725-7.663 2.153-.882.428-3.845 1.739-6.584 2.914-7.322 3.141-19.851 9.659-28.663 14.912-15.315 9.129-16.404 9.826-22.475 14.39l-3.452 2.596.546 8.423c.802 12.376 2.196 14.017 13.431 15.809 2.318.37 6.628 1.237 9.578 1.927 10.976 2.567 15.416 3.5 18.774 3.945 1.897.252 5.862.941 8.813 1.533 13.786 2.765 33.358 2.72 39.006-.089 1.224-.609 2.581-1.107 3.015-1.107.901 0 9.283-3.684 12.193-5.359a133.13 133.13 0 0 1 2.402-1.346c14.418-7.815 24.226-20.681 24.226-31.78 0-19.898-34.095-35.513-63.147-28.921M70.886 192.856c-12.934 1.532-33.605 11.019-47.897 21.982-4.865 3.732-13.794 12.555-13.794 13.631 0 .297-.456.996-1.013 1.553-5.289 5.29-6.976 19.023-3.141 25.566 9.067 15.473 34.677 24.215 63.689 21.741 14.468-1.233 21.433-3.614 45.063-15.405 11.234-5.606 31.937-17.446 39.609-22.652 2.019-1.37 3.914-2.49 4.212-2.49.512 0 6.32-3.754 7.137-4.614.211-.221 1.331-1.006 2.49-1.744l2.108-1.341v-10.597c0-13.16-1.004-15.41-7.309-16.392-2.091-.325-6.389-1.079-9.55-1.674-3.16-.596-7.643-1.288-9.961-1.539-2.318-.251-6.973-.948-10.345-1.549-3.372-.602-9.579-1.497-13.793-1.991a958.494 958.494 0 0 1-12.261-1.512c-5.711-.763-31.098-1.464-35.244-.973m175.292 53.658c-1.164 1.213-2.634 3.016-3.266 4.006-.632.99-2.371 3.39-3.864 5.334-6.719 8.745-7.356 11.721-4.558 21.268a7456.276 7456.276 0 0 1 6.124 20.962c.917 3.161 2.102 6.954 2.633 8.429.531 1.476 1.744 5.096 2.695 8.046 1.943 6.023 5.204 14.597 6.244 16.421.378.662 1.047 2.066 1.486 3.12 7.589 18.183 35.389 26.022 52.457 14.792 12.553-8.26 18.779-26.949 16.544-49.661-.837-8.501-4.793-21.664-7.503-24.962-.546-.665-.994-1.572-.994-2.015 0-1.113-6.28-9.102-8.515-10.831-5.647-4.37-22.686-10.927-35.166-13.534-2.742-.572-5.845-1.364-6.897-1.76-5.676-2.135-15.205-1.924-17.42.385M178.41 265.93c-.706.411-1.695 2.039-2.198 3.616-.503 1.577-1.35 3.902-1.883 5.167-4.287 10.168-9.588 33.519-9.569 42.145.03 12.973 12.458 36.223 23.417 43.808 13.392 9.27 41.249 3.751 45.14-8.942.323-1.054.901-2.309 1.285-2.79 4.122-5.172 2.117-37.342-3.099-49.7-.356-.843-1.43-3.602-2.387-6.131-1.913-5.051-6.744-15.674-9.583-21.072l-1.814-3.449-10.201-.881c-5.61-.485-13.771-1.261-18.136-1.725-9.423-1-9.339-.999-10.972-.046" fill="#825397" fill-rule="evenodd"/></svg>