<!--?xml version="1.0" encoding="utf-8"?-->
<!-- Generator: Adobe Illustrator 15.0.0, SVG Export Plug-In . SVG Version: 6.00 Build 0)  -->

<svg xmlns="http://www.w3.org/2000/svg" xmlns:xlink="http://www.w3.org/1999/xlink" width="24px" height="24px" viewBox="10 1 450 450" fill="#E47825">
<g>

	<path display="none" d="M68.11,67.989c-89.425,89.415-89.416,234.905,0.009,324.329c89.396,89.401,234.879,89.401,324.293-0.016
			c89.41-89.408,89.402-234.886,0.008-324.284C302.998-21.414,157.511-21.414,68.11,67.989z M367.397,367.295
			c-75.614,75.617-198.665,75.625-274.276,0.008c-75.634-75.633-75.621-198.685,0-274.3c75.611-75.608,198.653-75.616,274.285,0.008
			C443.022,168.627,443.015,291.681,367.397,367.295z M340.552,264.888c1.144,1.744,1.339,3.947,0.508,5.863
			c-18.522,42.806-61.89,70.467-110.494,70.467c-49.645,0-93.273-27.791-111.144-70.805c-0.8-1.916-0.582-4.103,0.565-5.824
			c1.154-1.722,3.088-2.753,5.154-2.753c0.004,0,0.004,0,0.009,0l210.226,0.263C337.464,262.099,339.405,263.145,340.552,264.888z
			 M144.21,160.901c0-4.427,1.578-9.133,4.332-12.912c3.151-4.322,7.277-6.707,11.632-6.707c4.322,0,8.395,1.892,11.347,5.073
			c2.956-3.182,7.027-5.073,11.351-5.073c4.348,0,8.475,2.385,11.618,6.707c2.752,3.778,4.33,8.484,4.33,12.912
			c0,7.042-4.347,15.015-12.929,23.71c-6.111,6.201-12.155,10.481-12.403,10.658c-0.594,0.422-1.281,0.63-1.967,0.63
			c-0.676,0-1.354-0.198-1.929-0.596C168.555,194.585,144.21,177.72,144.21,160.901z M265.751,160.901
			c0-4.427,1.579-9.133,4.331-12.912c3.153-4.322,7.282-6.707,11.629-6.707c4.322,0,8.4,1.892,11.346,5.073
			c2.959-3.182,7.032-5.073,11.355-5.073c4.347,0,8.475,2.385,11.615,6.707c2.753,3.778,4.331,8.484,4.331,12.912
			c0,7.042-4.347,15.015-12.924,23.71c-6.113,6.201-12.158,10.481-12.411,10.658c-0.589,0.422-1.273,0.63-1.967,0.63
			c-0.671,0-1.351-0.198-1.924-0.596C290.094,194.585,265.751,177.72,265.751,160.901z" id="path-0" style="position: relative; fill: rgb(0, 0, 0); stroke: none;" fill="#e6a22b" stroke="#f0a118" transform=""></path>
		<path display="none" d="M390.817,69.62C302.274-18.92,158.234-18.92,69.716,69.595c-88.535,88.528-88.527,232.579,0.009,321.116
			c88.509,88.516,232.55,88.516,321.075-0.018C479.329,302.174,479.319,158.133,390.817,69.62z M366.042,365.936
			c-74.867,74.867-196.698,74.875-271.56,0.008c-74.883-74.883-74.871-196.715,0-271.582
			c74.862-74.858,196.685-74.867,271.568,0.009C440.917,169.236,440.909,291.068,366.042,365.936z M139.144,163.537
			c-0.792-0.812-1.062-1.995-0.703-3.064c0.36-1.07,1.29-1.847,2.401-2.019l19.703-3.009l8.837-18.832
			c0.497-1.053,1.559-1.726,2.727-1.726s2.229,0.673,2.725,1.726l8.837,18.832l19.703,3.009c1.114,0.171,2.042,0.948,2.401,2.019
			c0.359,1.069,0.09,2.248-0.7,3.054l-14.345,14.711l3.397,20.787c0.184,1.138-0.293,2.279-1.237,2.943
			c-0.519,0.363-1.126,0.546-1.734,0.546c-0.499,0-1.001-0.121-1.454-0.371l-17.589-9.721l-17.58,9.721
			c-1.003,0.56-2.245,0.493-3.189-0.175c-0.942-0.665-1.42-1.806-1.237-2.943l3.385-20.787L139.144,163.537z M259.476,163.537
			c-0.789-0.812-1.063-1.995-0.701-3.064c0.359-1.07,1.285-1.847,2.402-2.019l19.701-3.009l8.834-18.832
			c0.498-1.053,1.559-1.726,2.727-1.726s2.23,0.673,2.729,1.726l8.84,18.832l19.699,3.009c1.111,0.171,2.039,0.948,2.398,2.019
			c0.361,1.069,0.094,2.248-0.701,3.054l-14.348,14.715l3.398,20.783c0.184,1.142-0.293,2.283-1.236,2.947
			c-0.52,0.363-1.127,0.546-1.732,0.546c-0.5,0-1.002-0.125-1.453-0.371l-17.594-9.717l-17.578,9.717
			c-1.004,0.56-2.24,0.489-3.189-0.175c-0.941-0.665-1.416-1.806-1.232-2.947l3.385-20.783L259.476,163.537z M339.462,264.544
			c1.133,1.726,1.324,3.907,0.502,5.804c-18.338,42.383-61.275,69.77-109.398,69.77c-49.153,0-92.351-27.517-110.043-70.103
			c-0.792-1.898-0.577-4.063,0.56-5.769c1.143-1.705,3.057-2.725,5.103-2.725c0.004,0,0.004,0,0.008,0l208.143,0.26
			C336.401,261.781,338.325,262.817,339.462,264.544z" id="path-1" style="position: relative;"></path>
		<path d="M388.702,71.729c-87.371-87.375-229.524-87.375-316.877-0.021c-87.371,87.361-87.363,229.517,0.008,316.89
			c87.346,87.353,229.499,87.353,316.862-0.017C476.056,301.226,476.047,159.079,388.702,71.729z M364.253,364.149
			c-73.882,73.883-194.106,73.891-267.988,0.009c-73.898-73.899-73.89-194.127,0-268.01c73.882-73.878,194.099-73.886,267.997,0.009
			C438.146,170.039,438.137,290.268,364.253,364.149z M146.682,169.512c0-14.458,11.727-26.189,26.189-26.189
			c14.456,0,26.181,11.727,26.181,26.189c0,14.466-11.725,26.195-26.181,26.195C158.409,195.707,146.682,183.978,146.682,169.512z
			 M265.428,169.512c0-14.458,11.738-26.189,26.197-26.189c14.456,0,26.19,11.727,26.19,26.189c0,14.466-11.729,26.195-26.19,26.195
			C277.166,195.707,265.428,183.978,265.428,169.512z M327.341,276.773c-16.232,37.531-54.241,61.781-96.828,61.781
			c-43.508,0-81.739-24.375-97.408-62.095c-2.687-6.458,0.375-13.874,6.842-16.56c1.588-0.655,3.233-0.969,4.856-0.969
			c4.966,0,9.68,2.937,11.703,7.812c11.728,28.235,40.773,46.472,74.007,46.472c32.473,0,61.352-18.254,73.568-46.502
			c2.779-6.424,10.236-9.382,16.657-6.602C327.16,262.891,330.121,270.348,327.341,276.773z" id="path-2" style="position: relative;"></path>
		<path display="none" d="M66.985,66.872c-89.18,89.175-89.171,234.28,0.008,323.465c89.158,89.165,234.255,89.165,323.436-0.017
			c89.174-89.169,89.165-234.261,0.009-323.421C301.248-22.295,156.151-22.295,66.985,66.872z M365.481,365.381
			c-75.415,75.415-198.139,75.424-273.545,0.009c-75.432-75.432-75.424-198.155,0-273.571
			C167.343,16.408,290.059,16.4,365.49,91.828C440.905,167.243,440.896,289.966,365.481,365.381z M181.259,180.274h-57.642
			c-7.493,0-13.57-6.075-13.57-13.566c0-7.494,6.077-13.566,13.57-13.566h57.642c7.492,0,13.571,6.073,13.571,13.566
			C194.83,174.2,188.75,180.274,181.259,180.274z M347.354,166.712c0,7.491-6.071,13.566-13.564,13.566h-57.649
			c-7.485,0-13.564-6.075-13.564-13.566c0-7.492,6.079-13.566,13.564-13.566h57.649
			C341.283,153.146,347.354,159.221,347.354,166.712z M327.804,276.191c-16.57,38.31-55.368,63.063-98.841,63.063
			c-44.408,0-83.438-24.881-99.426-63.383c-2.747-6.594,0.379-14.162,6.979-16.903c1.625-0.669,3.301-0.989,4.958-0.989
			c5.069,0,9.876,2.997,11.945,7.974c11.962,28.82,41.617,47.437,75.54,47.437c33.146,0,62.624-18.633,75.093-47.466
			c2.837-6.56,10.448-9.578,17.008-6.739C327.618,262.021,330.633,269.633,327.804,276.191z" id="path-3" style="position: relative;"></path>
		<path display="none" d="M230.316,460.726c127.2,0,230.316-103.115,230.316-230.315c0-127.2-103.116-230.316-230.316-230.316
			S0,103.21,0,230.41C0,357.61,103.116,460.726,230.316,460.726z M230.316,43.279c103.349,0,187.132,83.781,187.132,187.131
			c0,103.349-83.783,187.132-187.132,187.132c-103.35,0-187.131-83.783-187.131-187.132
			C43.185,127.06,126.966,43.279,230.316,43.279z M244.144,319.94c63.09-12.463,112.06-41.179,129.757-79.439
			c-9.741,75.553-72.657,133.856-148.828,133.856c-53.64,0-100.7-28.916-127.255-72.4
			C129.491,326.725,185.326,331.561,244.144,319.94z M287.896,158.437c0,23.85,12.889,43.184,28.789,43.184
			c15.899,0,28.789-19.334,28.789-43.184s-12.89-43.184-28.789-43.184C300.784,115.252,287.896,134.586,287.896,158.437z
			 M158.342,167.208c-18.801,0-34.788,7.042-40.717,16.869c-1.593-2.639-2.468-14.474-2.468-17.431
			c0-13.975,19.334-25.303,43.185-25.303s43.184,11.329,43.184,25.303c0,2.958-0.875,14.792-2.467,17.431
			C193.13,174.25,177.143,167.208,158.342,167.208z" id="path-4" style="position: relative; stroke: rgb(245, 177, 32);" stroke="#f5b120" transform="scale(1) translate(0,-5) rotate(0 0 0)"></path>
</g>
</svg>