<svg id="svg" version="1.1" viewBox="0 10 380 360" xmlns="http://www.w3.org/2000/svg" xmlns:xlink="http://www.w3.org/1999/xlink" style="display: block;"><g id="svgg"><path id="path0" d="M0.000 191.571 L 0.000 383.142 200.000 383.142 L 400.000 383.142 400.000 191.571 L 400.000 0.000 200.000 0.000 L 0.000 0.000 0.000 191.571 M203.831 14.221 C 207.910 16.211,221.456 29.027,221.456 30.895 C 221.456 31.327,221.948 32.224,222.549 32.890 C 224.140 34.649,231.802 49.664,232.943 53.257 C 233.478 54.943,234.180 56.667,234.502 57.088 C 236.069 59.139,240.533 80.425,240.769 86.973 C 240.972 92.609,237.371 114.788,234.157 127.687 C 230.573 142.073,227.949 151.982,226.269 157.471 C 225.624 159.579,224.647 163.199,224.097 165.517 C 220.565 180.413,219.656 181.616,211.935 181.594 C 204.901 181.574,196.255 180.310,194.279 179.013 C 192.254 177.683,183.938 161.017,174.831 140.038 C 172.469 134.596,167.050 120.636,167.050 119.993 C 167.050 119.660,166.570 118.302,165.983 116.974 C 164.579 113.797,162.588 107.829,161.342 103.065 C 160.791 100.958,159.976 98.372,159.530 97.318 C 156.176 89.390,156.587 61.260,160.215 50.380 C 161.024 47.955,161.686 45.483,161.686 44.887 C 161.686 44.290,162.164 42.826,162.750 41.633 C 163.335 40.440,164.773 37.395,165.947 34.866 C 170.888 24.218,179.917 15.343,189.272 11.940 C 191.877 10.992,199.738 12.224,203.831 14.221 M84.072 76.671 C 87.775 77.538,91.839 78.603,93.103 79.038 C 94.368 79.473,96.740 80.155,98.375 80.554 C 100.010 80.952,102.070 81.784,102.952 82.402 C 103.834 83.019,105.082 83.526,105.726 83.528 C 106.887 83.531,113.548 86.673,115.221 88.007 C 115.700 88.389,116.928 88.958,117.949 89.272 C 118.970 89.586,120.177 90.154,120.631 90.535 C 121.085 90.916,123.178 92.340,125.283 93.698 C 127.388 95.057,129.672 96.686,130.359 97.318 C 138.912 105.188,144.156 111.301,151.232 121.648 C 153.610 125.125,157.379 130.642,159.609 133.908 C 163.941 140.256,167.546 146.040,173.896 156.831 C 175.343 159.290,176.735 161.475,176.990 161.686 C 178.377 162.834,186.973 178.761,186.973 180.183 C 186.973 181.240,185.188 183.597,182.169 186.526 C 170.735 197.619,169.769 198.201,164.853 196.939 C 152.163 193.683,111.288 179.261,108.429 177.031 C 108.008 176.702,106.801 176.175,105.747 175.860 C 102.510 174.893,84.870 166.229,81.379 163.892 C 79.567 162.678,77.732 161.686,77.301 161.686 C 75.539 161.686,58.377 143.383,54.309 137.165 C 27.994 96.942,42.728 66.996,84.072 76.671 M314.891 91.360 C 330.414 95.074,338.114 111.263,333.397 130.268 C 326.831 156.724,318.195 167.771,292.462 182.628 C 281.306 189.069,245.178 206.897,243.281 206.897 C 239.148 206.897,224.868 192.731,225.545 189.302 C 226.676 183.567,230.146 171.211,231.470 168.199 C 231.841 167.356,233.160 163.563,234.402 159.770 C 235.644 155.977,237.202 151.839,237.865 150.575 C 238.528 149.310,239.073 147.812,239.076 147.245 C 239.078 146.678,239.574 145.298,240.177 144.180 C 240.781 143.061,242.033 140.421,242.961 138.314 C 249.361 123.780,252.827 117.980,258.578 112.179 C 268.406 102.265,282.343 94.161,293.487 91.881 C 295.805 91.407,298.908 90.752,300.383 90.425 C 304.955 89.413,307.417 89.572,314.891 91.360 M346.404 180.811 C 377.842 186.704,391.386 207.147,376.379 226.054 C 371.849 231.759,364.133 238.328,358.149 241.571 C 357.565 241.887,356.485 242.493,355.747 242.917 C 352.837 244.592,344.455 248.276,343.554 248.276 C 343.120 248.276,341.763 248.774,340.539 249.383 C 334.891 252.192,315.319 252.237,301.533 249.472 C 298.582 248.880,294.617 248.191,292.720 247.939 C 289.362 247.494,284.922 246.561,273.946 243.994 C 270.996 243.304,266.686 242.437,264.368 242.067 C 253.133 240.275,251.739 238.634,250.937 226.258 L 250.391 217.835 253.843 215.239 C 259.914 210.675,261.003 209.978,276.318 200.849 C 285.130 195.596,297.659 189.078,304.981 185.937 C 307.720 184.762,310.683 183.451,311.565 183.023 C 318.785 179.522,334.282 178.538,346.404 180.811 M106.130 193.829 C 108.659 194.167,114.176 194.848,118.391 195.341 C 122.605 195.835,128.812 196.730,132.184 197.332 C 135.556 197.933,140.211 198.630,142.529 198.881 C 144.847 199.132,149.330 199.824,152.490 200.420 C 155.651 201.015,159.949 201.769,162.040 202.094 C 168.345 203.076,169.349 205.326,169.349 218.486 L 169.349 229.083 167.241 230.424 C 166.082 231.162,164.962 231.947,164.751 232.168 C 163.934 233.028,158.126 236.782,157.614 236.782 C 157.316 236.782,155.421 237.902,153.402 239.272 C 145.730 244.478,125.027 256.318,113.793 261.924 C 90.163 273.715,83.198 276.096,68.730 277.329 C 39.718 279.803,14.108 271.061,5.041 255.588 C 1.206 249.045,2.893 235.312,8.182 230.022 C 8.739 229.465,9.195 228.766,9.195 228.469 C 9.195 223.355,34.829 205.361,52.490 198.076 C 65.600 192.669,85.600 191.086,106.130 193.829 M263.598 246.129 C 264.650 246.525,267.753 247.317,270.495 247.889 C 282.975 250.496,300.014 257.053,305.661 261.423 C 307.896 263.152,314.176 271.141,314.176 272.254 C 314.176 272.697,314.624 273.604,315.170 274.269 C 326.927 288.579,324.976 330.219,311.903 344.017 C 295.757 361.057,262.564 355.404,253.672 334.100 C 253.233 333.046,252.564 331.642,252.186 330.980 C 251.146 329.156,247.885 320.582,245.942 314.559 C 244.991 311.609,243.778 307.989,243.247 306.513 C 242.716 305.038,241.531 301.245,240.614 298.084 C 239.017 292.581,237.885 288.707,234.490 277.122 C 231.692 267.575,232.329 264.599,239.048 255.854 C 240.541 253.910,242.280 251.510,242.912 250.520 C 246.831 244.380,254.576 242.736,263.598 246.129 M189.382 265.976 C 193.747 266.440,201.908 267.216,207.518 267.701 L 217.719 268.582 219.533 272.031 C 222.372 277.429,227.203 288.052,229.116 293.103 C 230.073 295.632,231.147 298.391,231.503 299.234 C 236.719 311.592,238.724 343.762,234.602 348.934 C 234.218 349.415,233.640 350.670,233.317 351.724 C 229.426 364.417,201.569 369.936,188.177 360.666 C 177.218 353.081,164.790 329.831,164.760 316.858 C 164.741 308.232,170.042 284.881,174.329 274.713 C 174.862 273.448,175.709 271.123,176.212 269.546 C 177.697 264.889,178.103 264.779,189.382 265.976 " stroke="none" fill="none" fill-rule="evenodd"></path><path id="path1" d="M189.272 11.940 C 179.917 15.343,170.888 24.218,165.947 34.866 C 164.773 37.395,163.335 40.440,162.750 41.633 C 162.164 42.826,161.686 44.290,161.686 44.887 C 161.686 45.483,161.024 47.955,160.215 50.380 C 156.587 61.260,156.176 89.390,159.530 97.318 C 159.976 98.372,160.791 100.958,161.342 103.065 C 162.588 107.829,164.579 113.797,165.983 116.974 C 166.570 118.302,167.050 119.660,167.050 119.993 C 167.050 121.664,175.280 141.465,182.150 156.322 C 192.674 179.081,193.110 179.642,201.175 180.807 C 218.724 183.343,220.086 182.435,224.097 165.517 C 224.647 163.199,225.624 159.579,226.269 157.471 C 227.949 151.982,230.573 142.073,234.157 127.687 C 237.371 114.788,240.972 92.609,240.769 86.973 C 240.533 80.425,236.069 59.139,234.502 57.088 C 234.180 56.667,233.478 54.943,232.943 53.257 C 231.802 49.664,224.140 34.649,222.549 32.890 C 221.948 32.224,221.456 31.327,221.456 30.895 C 221.456 29.027,207.910 16.211,203.831 14.221 C 199.738 12.224,191.877 10.992,189.272 11.940 M56.705 77.001 C 31.897 85.752,37.110 122.147,67.544 152.682 C 72.480 157.634,76.871 161.686,77.301 161.686 C 77.732 161.686,79.567 162.678,81.379 163.892 C 84.870 166.229,102.510 174.893,105.747 175.860 C 106.801 176.175,108.008 176.702,108.429 177.031 C 111.288 179.261,152.163 193.683,164.853 196.939 C 169.769 198.201,170.735 197.619,182.169 186.526 C 185.188 183.597,186.973 181.240,186.973 180.183 C 186.973 178.761,178.377 162.834,176.990 161.686 C 176.735 161.475,175.343 159.290,173.896 156.831 C 167.546 146.040,163.941 140.256,159.609 133.908 C 157.379 130.642,153.610 125.125,151.232 121.648 C 144.156 111.301,138.912 105.188,130.359 97.318 C 129.672 96.686,127.388 95.057,125.283 93.698 C 123.178 92.340,121.085 90.916,120.631 90.535 C 120.177 90.154,118.970 89.586,117.949 89.272 C 116.928 88.958,115.700 88.389,115.221 88.007 C 113.548 86.673,106.887 83.531,105.726 83.528 C 105.082 83.526,103.834 83.019,102.952 82.402 C 102.070 81.784,100.010 80.952,98.375 80.554 C 96.740 80.155,94.368 79.473,93.103 79.038 C 80.692 74.768,65.453 73.916,56.705 77.001 M300.383 90.425 C 298.908 90.752,295.805 91.407,293.487 91.881 C 282.343 94.161,268.406 102.265,258.578 112.179 C 252.827 117.980,249.361 123.780,242.961 138.314 C 242.033 140.421,240.781 143.061,240.177 144.180 C 239.574 145.298,239.078 146.678,239.076 147.245 C 239.073 147.812,238.528 149.310,237.865 150.575 C 237.202 151.839,235.644 155.977,234.402 159.770 C 233.160 163.563,231.841 167.356,231.470 168.199 C 230.146 171.211,226.676 183.567,225.545 189.302 C 224.868 192.731,239.148 206.897,243.281 206.897 C 245.178 206.897,281.306 189.069,292.462 182.628 C 312.912 170.821,319.328 164.619,326.522 149.706 C 329.964 142.569,331.239 138.965,333.397 130.268 C 334.761 124.772,334.231 110.761,332.477 105.967 C 328.386 94.784,313.424 87.538,300.383 90.425 M319.228 180.870 C 315.896 181.627,312.447 182.595,311.565 183.023 C 310.683 183.451,307.720 184.762,304.981 185.937 C 297.659 189.078,285.130 195.596,276.318 200.849 C 261.003 209.978,259.914 210.675,253.843 215.239 L 250.391 217.835 250.937 226.258 C 251.739 238.634,253.133 240.275,264.368 242.067 C 266.686 242.437,270.996 243.304,273.946 243.994 C 284.922 246.561,289.362 247.494,292.720 247.939 C 294.617 248.191,298.582 248.880,301.533 249.472 C 315.319 252.237,334.891 252.192,340.539 249.383 C 341.763 248.774,343.120 248.276,343.554 248.276 C 344.455 248.276,352.837 244.592,355.747 242.917 C 356.485 242.493,357.565 241.887,358.149 241.571 C 372.567 233.756,382.375 220.890,382.375 209.791 C 382.375 189.893,348.280 174.278,319.228 180.870 M70.886 192.856 C 57.952 194.388,37.281 203.875,22.989 214.838 C 18.124 218.570,9.195 227.393,9.195 228.469 C 9.195 228.766,8.739 229.465,8.182 230.022 C 2.893 235.312,1.206 249.045,5.041 255.588 C 14.108 271.061,39.718 279.803,68.730 277.329 C 83.198 276.096,90.163 273.715,113.793 261.924 C 125.027 256.318,145.730 244.478,153.402 239.272 C 155.421 237.902,157.316 236.782,157.614 236.782 C 158.126 236.782,163.934 233.028,164.751 232.168 C 164.962 231.947,166.082 231.162,167.241 230.424 L 169.349 229.083 169.349 218.486 C 169.349 205.326,168.345 203.076,162.040 202.094 C 159.949 201.769,155.651 201.015,152.490 200.420 C 149.330 199.824,144.847 199.132,142.529 198.881 C 140.211 198.630,135.556 197.933,132.184 197.332 C 128.812 196.730,122.605 195.835,118.391 195.341 C 114.176 194.848,108.659 194.167,106.130 193.829 C 100.419 193.066,75.032 192.365,70.886 192.856 M246.178 246.514 C 245.014 247.727,243.544 249.530,242.912 250.520 C 242.280 251.510,240.541 253.910,239.048 255.854 C 232.329 264.599,231.692 267.575,234.490 277.122 C 237.885 288.707,239.017 292.581,240.614 298.084 C 241.531 301.245,242.716 305.038,243.247 306.513 C 243.778 307.989,244.991 311.609,245.942 314.559 C 247.885 320.582,251.146 329.156,252.186 330.980 C 252.564 331.642,253.233 333.046,253.672 334.100 C 261.261 352.283,289.061 360.122,306.129 348.892 C 318.682 340.632,324.908 321.943,322.673 299.231 C 321.836 290.730,317.880 277.567,315.170 274.269 C 314.624 273.604,314.176 272.697,314.176 272.254 C 314.176 271.141,307.896 263.152,305.661 261.423 C 300.014 257.053,282.975 250.496,270.495 247.889 C 267.753 247.317,264.650 246.525,263.598 246.129 C 257.922 243.994,248.393 244.205,246.178 246.514 M178.410 265.930 C 177.704 266.341,176.715 267.969,176.212 269.546 C 175.709 271.123,174.862 273.448,174.329 274.713 C 170.042 284.881,164.741 308.232,164.760 316.858 C 164.790 329.831,177.218 353.081,188.177 360.666 C 201.569 369.936,229.426 364.417,233.317 351.724 C 233.640 350.670,234.218 349.415,234.602 348.934 C 238.724 343.762,236.719 311.592,231.503 299.234 C 231.147 298.391,230.073 295.632,229.116 293.103 C 227.203 288.052,222.372 277.429,219.533 272.031 L 217.719 268.582 207.518 267.701 C 201.908 267.216,193.747 266.440,189.382 265.976 C 179.959 264.976,180.043 264.977,178.410 265.930 " stroke="none" fill="#825397" fill-rule="evenodd"></path></g></svg>