<svg id="svg" version="1.1" width="200" height="1000" xmlns="http://www.w3.org/2000/svg" xmlns:xlink="http://www.w3.org/1999/xlink" style="display: block;"><g id="svgg"><path id="path0" d="M38.000 18.962 L 38.000 37.925 28.750 38.255 L 19.500 38.585 28.750 38.792 L 38.000 39.000 38.000 197.500 L 38.000 356.000 46.941 356.000 C 51.859 356.000,56.129 355.600,56.432 355.110 C 56.734 354.621,58.448 354.006,60.241 353.744 C 63.151 353.318,78.678 350.102,88.000 347.993 C 93.741 346.695,102.216 344.840,106.750 343.890 C 109.088 343.401,112.912 342.599,115.250 342.110 C 119.257 341.270,126.077 339.782,134.000 338.020 C 135.925 337.591,141.100 336.504,145.500 335.603 C 149.900 334.702,155.412 333.523,157.750 332.983 C 160.088 332.442,163.912 331.581,166.250 331.070 C 168.588 330.558,172.637 329.658,175.250 329.070 C 182.859 327.356,188.297 326.155,191.250 325.537 L 194.000 324.962 194.000 311.981 C 194.000 303.994,194.385 299.000,195.000 299.000 C 195.633 299.000,196.000 291.667,196.000 279.000 C 196.000 266.333,195.633 259.000,195.000 259.000 C 194.342 259.000,194.000 231.500,194.000 178.500 C 194.000 125.500,194.342 98.000,195.000 98.000 C 195.633 98.000,196.000 90.667,196.000 78.000 C 196.000 65.333,195.633 58.000,195.000 58.000 C 194.397 58.000,194.000 53.840,194.000 47.519 L 194.000 37.038 191.250 36.394 C 188.482 35.747,183.813 34.527,170.000 30.842 C 165.875 29.742,160.813 28.427,158.750 27.921 C 156.688 27.414,153.313 26.586,151.250 26.079 C 149.188 25.573,144.012 24.223,139.750 23.079 C 135.488 21.936,128.512 20.064,124.250 18.921 C 119.987 17.777,114.813 16.427,112.750 15.921 C 110.688 15.414,107.313 14.586,105.250 14.079 C 103.188 13.573,98.013 12.223,93.750 11.079 C 89.487 9.936,82.513 8.064,78.250 6.921 C 67.262 3.973,62.967 2.933,59.250 2.318 C 57.462 2.023,56.000 1.380,56.000 0.891 C 56.000 0.401,51.950 0.000,47.000 0.000 L 38.000 0.000 38.000 18.962 M49.000 178.000 L 49.000 353.000 45.000 353.000 L 41.000 353.000 41.000 178.000 L 41.000 3.000 45.000 3.000 L 49.000 3.000 49.000 178.000 M137.500 25.821 L 190.500 39.650 190.500 181.050 L 190.500 322.449 159.000 329.290 C 141.675 333.052,110.287 339.852,89.250 344.401 L 51.000 352.673 51.000 177.957 L 51.000 3.241 67.750 7.616 C 76.963 10.023,108.350 18.215,137.500 25.821 M60.429 193.468 C 56.981 198.731,62.599 204.870,68.432 202.213 C 74.250 199.562,72.011 191.000,65.500 191.000 C 62.931 191.000,61.632 191.633,60.429 193.468 M104.640 622.086 L 105.327 672.172 100.413 671.370 C 81.246 668.242,64.000 677.000,64.000 689.862 C 64.000 692.703,63.801 692.827,58.185 693.479 C 49.659 694.468,49.092 695.176,53.795 698.956 C 56.225 700.909,58.454 703.899,59.479 706.584 C 61.804 712.672,66.661 711.424,70.649 703.712 L 72.258 700.600 74.247 703.050 C 75.920 705.111,76.146 706.467,75.671 711.590 L 75.105 717.680 78.509 719.303 C 83.378 721.625,94.426 723.347,100.125 722.672 L 105.000 722.094 105.000 809.547 L 105.000 897.000 98.250 897.193 L 91.500 897.385 97.750 897.740 L 104.000 898.095 104.000 913.048 L 104.000 928.000 111.250 928.183 C 121.730 928.448,122.173 928.388,127.580 925.969 C 130.286 924.758,133.963 923.145,135.750 922.384 C 137.538 921.623,140.575 920.325,142.500 919.500 C 144.425 918.675,147.575 917.325,149.500 916.500 C 151.425 915.675,154.575 914.325,156.500 913.500 C 158.425 912.675,161.463 911.378,163.250 910.619 C 167.388 908.860,172.476 906.679,177.250 904.619 C 185.645 900.995,187.642 900.143,190.750 898.857 L 194.000 897.512 194.000 884.256 C 194.000 876.085,194.384 871.000,195.000 871.000 C 195.632 871.000,196.000 863.833,196.000 851.500 C 196.000 839.167,195.632 832.000,195.000 832.000 C 194.342 832.000,194.000 804.333,194.000 751.000 C 194.000 697.667,194.342 670.000,195.000 670.000 C 195.633 670.000,196.000 662.667,196.000 650.000 C 196.000 637.333,195.633 630.000,195.000 630.000 C 194.401 630.000,194.000 626.041,194.000 620.122 C 194.000 610.690,192.568 606.099,190.325 608.342 C 189.980 608.687,189.203 608.351,188.599 607.596 C 187.994 606.842,177.375 601.118,165.000 594.878 C 152.625 588.638,142.275 583.288,142.000 582.989 C 138.078 578.729,119.823 571.987,112.227 571.993 L 103.954 572.000 104.640 622.086 M118.753 750.250 L 118.500 925.500 113.000 925.500 L 107.500 925.500 107.243 751.500 C 107.102 655.800,107.201 576.938,107.462 576.250 C 107.763 575.458,109.964 575.000,113.471 575.000 L 119.006 575.000 118.753 750.250 M157.000 594.429 L 190.500 611.791 190.500 753.536 L 190.500 895.281 157.429 909.465 C 139.241 917.266,123.603 923.938,122.679 924.293 C 121.111 924.895,121.000 913.456,121.000 750.969 C 121.000 612.443,121.255 577.007,122.250 577.033 C 122.938 577.051,138.575 584.879,157.000 594.429 M128.000 765.000 C 125.211 767.789,125.727 771.728,129.221 774.325 C 132.521 776.778,136.326 775.573,138.188 771.486 C 140.758 765.847,132.445 760.555,128.000 765.000 M15.000 813.167 C 15.000 813.808,15.301 814.032,15.669 813.664 C 16.037 813.297,17.274 813.784,18.419 814.748 C 20.498 816.499,20.498 816.498,18.595 814.250 C 16.515 811.793,15.000 811.337,15.000 813.167 M32.999 897.250 C 32.999 897.663,45.262 897.906,60.250 897.791 C 87.445 897.582,84.324 897.242,50.749 896.757 C 40.986 896.616,32.998 896.837,32.999 897.250 " stroke="none" fill="#ffffff" fill-rule="evenodd"></path><path id="path1" d="M78.186 802.728 C 75.181 803.098,74.924 803.387,75.437 805.818 C 75.749 807.293,76.660 812.325,77.463 817.000 C 78.265 821.675,80.503 834.725,82.435 846.000 C 84.368 857.275,87.081 873.025,88.466 881.000 C 89.850 888.975,90.987 895.837,90.992 896.250 C 90.996 896.663,94.150 897.000,98.000 897.000 L 105.000 897.000 105.000 850.107 C 105.000 808.269,104.829 803.149,103.418 802.607 C 101.732 801.960,83.723 802.046,78.186 802.728 M37.797 815.476 C 35.064 818.209,33.043 830.443,35.001 832.401 C 36.350 833.750,36.403 833.617,38.733 823.000 C 41.127 812.094,41.132 812.140,37.797 815.476 M46.721 834.591 L 34.000 855.500 34.000 876.250 L 34.000 897.000 60.500 897.000 C 75.075 897.000,86.985 896.888,86.967 896.750 C 86.948 896.612,80.748 877.866,73.187 855.091 L 59.441 813.683 46.721 834.591 " stroke="none" fill="#56a746" fill-rule="evenodd"></path><path id="path2" d="M35.000 659.327 L 35.000 695.654 38.250 695.259 C 40.038 695.041,42.497 694.377,43.716 693.781 C 45.324 692.995,46.305 693.008,47.294 693.829 C 48.248 694.621,49.677 694.666,52.071 693.980 C 53.950 693.441,57.450 693.000,59.850 693.000 C 63.448 693.000,64.106 692.718,63.597 691.393 C 59.079 679.618,82.600 666.580,100.750 670.800 L 105.000 671.787 105.000 647.394 L 105.000 623.000 70.000 623.000 L 35.000 623.000 35.000 659.327 M70.590 721.285 C 68.206 723.918,67.722 725.271,67.915 728.755 C 68.815 744.961,50.257 754.660,38.031 744.373 L 35.000 741.822 35.000 753.986 L 35.000 766.149 44.596 759.459 L 54.193 752.768 66.846 755.429 C 94.623 761.270,101.048 762.715,101.567 763.234 C 102.082 763.748,98.249 764.674,79.145 768.648 C 68.930 770.773,69.322 769.678,72.388 787.529 C 75.380 804.952,74.191 803.186,82.059 801.885 C 85.625 801.296,92.182 801.107,96.750 801.462 L 105.000 802.104 105.000 762.552 L 105.000 723.000 96.589 723.000 C 89.111 723.000,82.831 721.738,75.000 718.660 C 74.076 718.297,72.382 719.306,70.590 721.285 M41.500 776.875 L 35.500 778.515 35.229 798.202 L 34.958 817.888 37.895 814.951 C 40.896 811.950,41.121 811.192,46.485 786.000 C 47.363 781.875,48.319 777.712,48.608 776.750 C 49.217 774.727,49.366 774.724,41.500 776.875 " stroke="none" fill="#0eade3" fill-rule="evenodd"></path><path id="path3" d="M35.000 75.469 C 35.000 94.141,35.195 96.862,36.500 96.362 C 37.767 95.875,38.000 92.542,38.000 74.893 C 38.000 56.988,37.785 54.000,36.500 54.000 C 35.213 54.000,35.000 57.052,35.000 75.469 M35.000 287.378 C 35.000 305.931,35.213 309.000,36.500 309.000 C 37.784 309.000,38.000 306.069,38.000 288.622 C 38.000 271.729,37.744 268.032,36.500 267.000 C 35.175 265.900,35.000 268.271,35.000 287.378 M43.500 694.000 C 43.160 694.550,41.349 695.000,39.476 695.000 C 35.825 695.000,34.000 697.022,34.000 701.066 C 34.000 702.275,33.069 704.770,31.932 706.611 C 28.126 712.768,29.459 715.505,36.250 715.475 C 42.156 715.449,43.732 716.302,39.750 717.370 C 35.662 718.465,30.269 718.029,29.000 716.500 C 25.460 712.235,12.000 723.174,12.000 730.316 C 12.000 736.346,23.043 740.992,30.474 738.088 C 32.045 737.474,33.009 738.093,35.204 741.123 C 45.849 755.818,68.958 747.080,67.908 728.755 C 67.704 725.197,68.167 723.968,70.732 721.251 C 74.420 717.346,76.592 709.686,75.113 705.798 C 73.790 702.319,72.283 701.532,71.524 703.924 C 69.221 711.181,60.841 713.750,59.044 707.750 C 57.084 701.206,45.422 690.890,43.500 694.000 M35.000 766.099 C 6.608 786.054,6.358 786.239,8.670 785.557 C 9.864 785.204,11.664 784.725,12.670 784.492 C 13.677 784.258,22.150 782.065,31.500 779.617 C 40.850 777.170,48.580 775.247,48.678 775.345 C 48.776 775.443,48.054 779.118,47.073 783.512 C 46.092 787.905,44.299 796.225,43.089 802.000 C 37.928 826.626,36.633 832.525,36.294 832.949 C 36.097 833.195,31.630 829.145,26.366 823.949 C 21.103 818.752,17.044 815.400,17.346 816.500 C 20.883 829.365,25.201 845.186,27.104 852.250 C 28.401 857.063,29.695 860.984,29.981 860.963 C 30.619 860.919,32.782 857.492,47.004 834.000 C 53.164 823.825,58.496 815.188,58.852 814.807 C 59.209 814.425,66.888 836.137,75.917 863.056 C 84.947 889.974,92.511 911.823,92.726 911.607 C 93.254 911.079,91.066 896.755,85.606 865.000 C 69.374 770.596,69.596 771.992,70.656 770.992 C 71.120 770.555,78.216 768.800,86.424 767.091 C 105.687 763.082,105.516 763.547,89.000 760.100 C 83.775 759.009,74.121 756.965,67.548 755.558 C 60.974 754.151,55.124 753.022,54.548 753.048 C 53.971 753.075,45.175 758.948,35.000 766.099 " stroke="none" fill="#0285bf" fill-rule="evenodd"></path><path id="path4" d="M35.667 96.667 C 34.099 98.235,34.922 119.310,36.500 118.000 C 37.657 117.040,38.000 114.382,38.000 106.378 C 38.000 96.874,37.508 94.826,35.667 96.667 M35.000 254.686 C 35.000 263.305,35.332 266.031,36.500 267.000 C 38.681 268.810,38.651 248.445,36.468 245.559 C 35.149 243.814,35.000 244.739,35.000 254.686 M52.250 622.748 C 62.013 622.912,77.988 622.912,87.750 622.748 C 97.513 622.585,89.525 622.451,70.000 622.451 C 50.475 622.451,42.488 622.585,52.250 622.748 M49.595 694.847 C 49.307 695.313,50.518 697.000,52.286 698.597 L 55.500 701.500 52.736 698.431 C 51.216 696.743,50.278 695.055,50.653 694.681 C 51.027 694.306,51.060 694.000,50.726 694.000 C 50.391 694.000,49.882 694.381,49.595 694.847 M35.500 717.000 C 38.252 718.183,39.231 718.183,38.500 717.000 C 38.160 716.450,36.896 716.032,35.691 716.070 C 33.579 716.138,33.572 716.171,35.500 717.000 M9.948 782.841 C 8.357 784.129,8.032 784.901,8.862 785.415 C 9.515 785.819,9.926 785.697,9.775 785.145 C 9.624 784.593,10.400 783.449,11.500 782.602 C 12.600 781.756,13.212 781.049,12.861 781.032 C 12.509 781.014,11.199 781.828,9.948 782.841 M87.728 801.722 C 89.503 801.943,92.653 801.946,94.728 801.730 C 96.802 801.513,95.350 801.333,91.500 801.328 C 87.650 801.324,85.952 801.501,87.728 801.722 M93.000 915.809 C 93.000 916.254,93.632 917.483,94.405 918.540 C 95.720 920.338,95.777 920.285,95.289 917.731 C 94.823 915.296,93.000 913.765,93.000 915.809 " stroke="none" fill="#4994cb" fill-rule="evenodd"></path><path id="path5" d="M41.247 177.750 L 41.500 352.500 44.750 352.813 L 48.000 353.127 48.000 178.063 L 48.000 3.000 44.497 3.000 L 40.994 3.000 41.247 177.750 M51.000 178.000 C 51.000 273.700,51.171 352.000,51.381 352.000 C 51.590 352.000,64.303 349.277,79.631 345.949 C 94.959 342.621,111.550 339.044,116.500 338.000 C 123.762 336.469,153.120 330.101,186.250 322.871 L 191.000 321.834 191.000 180.917 C 191.000 103.413,190.734 40.000,190.410 40.000 C 190.085 40.000,184.685 38.650,178.410 37.000 C 172.134 35.350,161.825 32.650,155.500 31.000 C 149.175 29.350,138.825 26.650,132.500 25.000 C 126.175 23.350,115.825 20.650,109.500 19.000 C 103.175 17.350,92.825 14.650,86.500 13.000 C 80.175 11.350,69.866 8.650,63.590 7.000 C 57.315 5.350,51.915 4.000,51.590 4.000 C 51.266 4.000,51.000 82.300,51.000 178.000 M20.000 181.000 L 20.000 323.000 29.000 323.000 L 38.000 323.000 38.000 316.607 C 38.000 311.847,37.617 310.067,36.500 309.638 C 34.219 308.763,34.219 53.000,36.500 53.000 C 37.690 53.000,38.000 51.556,38.000 46.000 L 38.000 39.000 29.000 39.000 L 20.000 39.000 20.000 181.000 M70.000 192.000 C 75.690 197.690,68.534 207.016,62.130 202.257 C 58.681 199.693,58.120 194.880,60.941 192.059 C 63.552 189.448,67.423 189.423,70.000 192.000 M108.000 750.500 L 108.000 925.000 113.500 925.000 L 119.000 925.000 119.000 750.500 L 119.000 576.000 113.500 576.000 L 108.000 576.000 108.000 750.500 M122.000 750.497 L 122.000 924.027 125.250 922.665 C 127.037 921.916,142.563 915.302,159.750 907.966 L 191.000 894.629 191.000 753.565 L 191.000 612.500 180.750 607.263 C 175.112 604.383,159.588 596.388,146.250 589.496 L 122.000 576.966 122.000 750.497 M20.000 662.250 L 20.000 715.500 24.475 715.500 C 28.638 715.500,28.996 715.290,29.597 712.500 C 29.953 710.850,31.202 707.700,32.372 705.500 C 34.423 701.645,34.511 700.062,34.812 661.750 L 35.125 622.000 70.062 622.000 L 105.000 622.000 105.000 615.500 L 105.000 609.000 62.500 609.000 L 20.000 609.000 20.000 662.250 M25.250 739.195 L 20.000 740.153 20.000 757.576 C 20.000 777.518,19.585 776.899,28.623 770.449 L 35.000 765.899 35.000 753.884 C 35.000 742.081,34.125 737.883,31.715 738.119 C 31.047 738.184,28.138 738.668,25.250 739.195 M137.443 765.223 C 140.723 769.905,137.831 776.000,132.329 776.000 C 126.760 776.000,123.847 769.037,127.655 764.829 C 130.033 762.201,135.481 762.421,137.443 765.223 M27.000 780.801 C 19.679 782.889,19.920 782.163,20.229 801.224 L 20.500 817.947 27.000 824.506 C 33.074 830.634,33.543 830.914,34.150 828.782 C 35.463 824.177,35.099 778.991,33.750 779.116 C 33.063 779.180,30.025 779.939,27.000 780.801 M20.000 863.333 L 20.000 896.000 27.000 896.000 L 34.000 896.000 33.996 875.750 L 33.993 855.500 31.849 859.000 L 29.705 862.500 25.423 847.154 C 23.068 838.713,20.884 831.551,20.570 831.237 C 20.257 830.923,20.000 845.367,20.000 863.333 " stroke="none" fill="#815397" fill-rule="evenodd"></path><path id="path6" d="M48.489 178.000 C 48.489 274.525,48.606 314.013,48.750 265.750 C 48.893 217.488,48.893 138.513,48.750 90.250 C 48.606 41.988,48.489 81.475,48.489 178.000 M36.200 118.200 C 34.235 120.165,34.494 242.949,36.468 245.559 C 37.764 247.272,37.940 239.841,37.968 182.250 C 37.986 146.363,37.865 117.000,37.700 117.000 C 37.535 117.000,36.860 117.540,36.200 118.200 M24.250 323.735 C 26.862 323.941,31.137 323.941,33.750 323.735 C 36.362 323.529,34.225 323.360,29.000 323.360 C 23.775 323.360,21.637 323.529,24.250 323.735 M107.462 576.250 C 107.201 576.938,107.102 655.800,107.243 751.500 L 107.500 925.500 112.500 925.578 L 117.500 925.656 112.750 925.276 L 108.000 924.895 108.000 750.498 L 108.000 576.100 113.750 575.739 L 119.500 575.378 113.719 575.189 C 109.865 575.063,107.779 575.417,107.462 576.250 M121.489 751.000 C 121.489 846.975,121.606 886.238,121.750 838.250 C 121.894 790.263,121.894 711.738,121.750 663.750 C 121.606 615.763,121.489 655.025,121.489 751.000 M41.318 608.749 C 53.317 608.909,72.667 608.909,84.318 608.749 C 95.968 608.589,86.150 608.458,62.500 608.458 C 38.850 608.459,29.318 608.590,41.318 608.749 M32.000 717.000 C 32.000 717.550,33.237 717.968,34.750 717.930 C 37.187 717.867,37.272 717.762,35.500 717.000 C 32.769 715.826,32.000 715.826,32.000 717.000 " stroke="none" fill="#cbbbd7" fill-rule="evenodd"></path></g></svg>